HIERARCHY
ROOT Hips
{
	OFFSET 0.000000 8.830580 0.000000
	CHANNELS 6 Xposition Yposition Zposition Zrotation Yrotation Xrotation 
	JOINT Spine
	{
		OFFSET 0.000000 0.010000 0.000000
		CHANNELS 3 Zrotation Yrotation Xrotation
		JOINT Spine1
		{
			OFFSET 0.000000 2.459130 0.000000
			CHANNELS 3 Zrotation Yrotation Xrotation
			JOINT Neck
			{
				OFFSET 0.000000 2.484630 0.000000
				CHANNELS 3 Zrotation Yrotation Xrotation
				JOINT Head_virtual
				{
					OFFSET 0.000000 0.000000 0.000000
					CHANNELS 3 Zrotation Yrotation Xrotation
					JOINT Head
					{
						OFFSET 0.000000 0.927525 0.000000
						CHANNELS 3 Zrotation Yrotation Xrotation
						End Site
						{
							OFFSET 0.000000 0.000000 0.000000
						}
					}
				}
				JOINT LeftUpArm_virtual
				{
					OFFSET 0.000000 0.000000 0.000000
					CHANNELS 3 Zrotation Yrotation Xrotation
					JOINT LeftUpArm
					{
						OFFSET 1.248820 0.000000 0.000000
						CHANNELS 3 Zrotation Yrotation Xrotation
						JOINT LeftForeArm
						{
							OFFSET 2.597580 0.000000 0.000000
							CHANNELS 3 Zrotation Yrotation Xrotation
							JOINT LeftHand
							{
								OFFSET 2.455420 0.000000 0.000000
								CHANNELS 3 Zrotation Yrotation Xrotation
								End Site
								{
									OFFSET 0.000000 0.000000 0.000000
								}
							}
						}
					}
				}
				JOINT RightUpArm_virtual
				{
					OFFSET -0.000000 -0.000000 -0.000000
					CHANNELS 3 Zrotation Yrotation Xrotation
					JOINT RightUpArm
					{
						OFFSET -1.248820 -0.000000 -0.000000
						CHANNELS 3 Zrotation Yrotation Xrotation
						JOINT RightForeArm
						{
							OFFSET -2.597580 -0.000000 -0.000000
							CHANNELS 3 Zrotation Yrotation Xrotation
							JOINT RightHand
							{
								OFFSET -2.455420 -0.000000 -0.000000
								CHANNELS 3 Zrotation Yrotation Xrotation
								End Site
								{
									OFFSET 0.000000 0.000000 0.000000
								}
							}
						}
					}
				}
			}
		}
	}
	JOINT LeftUpLeg
	{
		OFFSET 1.271939 0.000000 0.000000
		CHANNELS 3 Zrotation Yrotation Xrotation
		JOINT LeftLowLeg
		{
			OFFSET 0.000000 -4.342910 0.000000
			CHANNELS 3 Zrotation Yrotation Xrotation
			JOINT LeftFoot
			{
				OFFSET 0.000000 -4.487670 0.000000
				CHANNELS 3 Zrotation Yrotation Xrotation
				JOINT LeftToeBase
				{
					OFFSET 0.000000 0.000000 1.515070
					CHANNELS 3 Zrotation Yrotation Xrotation
					End Site
					{
						OFFSET 0.000000 0.000000 0.000000
					}
				}
			}
		}
	}
	JOINT RightUpLeg
	{
		OFFSET -1.271939 0.000000 0.000000
		CHANNELS 3 Zrotation Yrotation Xrotation
		JOINT RightLowLeg
		{
			OFFSET 0.000000 -4.342910 0.000000
			CHANNELS 3 Zrotation Yrotation Xrotation
			JOINT RightFoot
			{
				OFFSET 0.000000 -4.487670 0.000000
				CHANNELS 3 Zrotation Yrotation Xrotation
				JOINT RightToeBase
				{
					OFFSET 0.000000 0.000000 1.515070
					CHANNELS 3 Zrotation Yrotation Xrotation
					End Site
					{
						OFFSET 0.000000 0.000000 0.000000
					}
				}
			}
		}
	}
}
MOTION
Frames: 8
Frame Time: 0.041667
-16.492111 8.952150 37.935560 -177.877137 -4.726800 -160.116514 7.464223 -0.993461 -28.800336 -2.249056 1.123594 6.118891 0.000000 0.000000 0.000000 4.907487 6.251542 -8.808897 -14.864844 -8.435745 -84.882742 -30.866301 -0.245551 8.588170 -41.432598 -7.481560 11.263000 0.000000 -12.057700 0.000000 5.267510 9.995200 23.511299 31.756100 -3.700220 2.230670 42.661701 0.704470 14.335200 0.000000 15.330300 0.000000 -2.230840 -5.860530 1.663660 9.181780 -26.828840 -17.025568 0.000000 0.000000 5.238830 -1.467983 20.777395 -4.693240 0.000000 0.000000 -10.943400 1.161812 26.731344 -13.696052 0.000000 0.000000 2.060920 3.309595 -29.853354 0.303354 0.000000 0.000000 -16.425000 
-16.497723 8.952366 37.934749 -177.834411 -4.722981 -160.168781 7.481879 -1.003862 -28.772230 -2.177585 1.100582 6.183045 0.000000 0.000000 0.000000 4.852117 6.289903 -8.748044 -14.754350 -8.446642 -84.902779 -30.782499 -0.198596 8.515880 -41.639999 -7.130350 10.927002 0.000000 -11.324200 0.000000 5.263490 10.208900 23.312799 31.765400 -3.745470 2.434820 42.604301 0.590293 14.079200 0.000000 15.178400 0.000000 -2.226540 -5.737740 2.062430 9.221120 -26.994096 -16.906478 0.000000 0.000000 5.086770 -1.422069 20.903246 -4.628423 0.000000 0.000000 -11.120570 1.184966 26.771862 -13.633650 0.000000 0.000000 2.052420 3.348966 -29.872343 0.307795 0.000000 0.000000 -16.435600 
-16.502723 8.952444 37.934651 -177.793413 -4.687466 -160.238349 7.486569 -1.026160 -28.727937 -2.096318 1.082896 6.260112 0.000000 0.000000 0.000000 4.938593 6.272715 -8.731996 -14.773649 -8.412868 -84.841580 -30.732000 -0.138836 8.507240 -41.817501 -6.860900 10.420013 0.000000 -10.641900 0.000000 5.166280 10.569400 23.480301 31.742901 -3.734360 2.469800 42.593700 0.371877 14.114600 0.000000 15.034700 0.000000 -2.285180 -5.840140 1.919010 9.209293 -27.029636 -16.759572 0.000000 0.000000 4.957350 -1.491272 20.884246 -4.633832 0.000000 0.000000 -11.082310 1.189933 26.890044 -13.591647 0.000000 0.000000 2.091610 3.409268 -29.931794 0.285131 0.000000 0.000000 -16.445900 
-16.507520 8.952478 37.935165 -177.766359 -4.645107 -160.283591 7.481925 -1.031027 -28.703980 -2.028045 1.091770 6.313491 0.000000 0.000000 0.000000 4.987356 6.276329 -8.677048 -14.730150 -8.373168 -84.748843 -30.660200 -0.102670 8.418730 -42.019299 -6.558690 9.920013 0.000000 -10.018400 0.000000 4.897530 10.795000 23.756901 31.741699 -3.817440 2.556840 42.552898 0.290220 14.175900 0.000000 14.838100 0.000000 -2.123360 -5.976290 2.031550 9.233554 -27.200254 -16.661294 0.000000 0.000000 4.832020 -1.542787 21.021870 -4.616885 0.000000 0.000000 -11.109090 1.173000 26.994979 -13.594838 0.000000 0.000000 2.164830 3.491780 -29.975510 0.224765 0.000000 0.000000 -16.428160 
-16.511919 8.952499 37.936006 -177.743024 -4.636135 -160.324456 7.474890 -1.045926 -28.692124 -1.969334 1.095084 6.358136 0.000000 0.000000 0.000000 5.068730 6.268556 -8.619083 -14.714627 -8.304698 -84.584927 -30.603901 -0.088868 8.383370 -42.192799 -6.258880 9.660004 0.000000 -9.588390 0.000000 4.758280 11.053900 24.030399 31.697201 -3.850580 2.482000 42.612400 0.029558 14.235500 0.000000 14.655200 0.000000 -2.149590 -6.021420 2.017290 9.229908 -27.255495 -16.613147 0.000000 0.000000 4.808770 -1.672106 21.012119 -4.685599 0.000000 0.000000 -10.896310 1.191479 26.974431 -13.583617 0.000000 0.000000 2.222510 3.515713 -29.951740 0.206475 0.000000 0.000000 -16.457300 
-16.516795 8.952693 37.936956 -177.718915 -4.638945 -160.378773 7.486974 -1.069898 -28.666861 -1.925798 1.061567 6.369918 0.000000 0.000000 0.000000 5.056831 6.302384 -8.512215 -14.621821 -8.224810 -84.371279 -30.563999 -0.054010 8.389320 -42.355499 -5.990170 9.394012 0.000000 -9.230140 0.000000 4.578590 11.129200 24.429001 31.648701 -3.873920 2.510100 42.667198 -0.141615 14.234000 0.000000 14.469400 0.000000 -2.157440 -5.913770 2.365640 9.212233 -27.315024 -16.593229 0.000000 0.000000 4.862790 -1.650052 21.074028 -4.705027 0.000000 0.000000 -10.888030 1.237897 26.880438 -13.538591 0.000000 0.000000 2.258520 3.489636 -29.887412 0.223528 0.000000 0.000000 -16.463930 
-16.521514 8.952848 37.937177 -177.689794 -4.634725 -160.428016 7.518090 -1.096613 -28.669839 -1.904966 1.004248 6.392416 0.000000 0.000000 0.000000 4.958439 6.401762 -8.399142 -14.463957 -8.096911 -84.099981 -30.528900 0.025633 8.336800 -42.518700 -5.708350 9.273987 0.000000 -9.037610 0.000000 4.489580 11.298900 24.751699 31.645800 -3.836250 2.475860 42.676201 -0.355335 14.204600 0.000000 14.287300 0.000000 -1.917380 -6.091490 2.228400 9.176070 -27.303437 -16.578499 0.000000 0.000000 4.948680 -1.602237 21.093305 -4.729337 0.000000 0.000000 -10.892430 1.281977 26.821539 -13.506954 0.000000 0.000000 2.312020 3.461046 -29.858990 0.235571 0.000000 0.000000 -16.484600 
-16.525846 8.952996 37.935907 -177.655907 -4.503538 -160.432656 7.551823 -1.020425 -28.736881 -1.949743 1.033570 6.409857 0.000000 0.000000 0.000000 5.107438 6.403717 -8.224693 -14.513322 -7.918429 -83.699279 -30.444300 0.046488 8.292340 -42.717098 -5.428780 9.062988 0.000000 -8.882680 0.000000 4.386580 11.387100 25.023100 31.665001 -3.895980 2.564290 42.716099 -0.407577 14.040100 0.000000 14.121000 0.000000 -1.786650 -6.175200 2.773520 9.095123 -27.152067 -16.527202 0.000000 0.000000 4.973910 -1.536635 21.113600 -4.752721 0.000000 0.000000 -10.895280 1.261918 26.886855 -13.553811 0.000000 0.000000 2.402810 3.475242 -29.816919 0.219452 0.000000 0.000000 -16.478460 
